<svg width="140" height="140" viewBox="0 0 140 140" fill="none" xmlns="http://www.w3.org/2000/svg">
<path fill-rule="evenodd" clip-rule="evenodd" d="M70 105C89.33 105 105 89.33 105 70C105 50.67 89.33 35 70 35C50.67 35 35 50.67 35 70C35 89.33 50.67 105 70 105ZM70 99C86.0163 99 99 86.0163 99 70C99 53.9837 86.0163 41 70 41C53.9837 41 41 53.9837 41 70C41 86.0163 53.9837 99 70 99Z" fill="black"/>
<path d="M109 38C113.418 38 117 34.4183 117 30C117 25.5817 113.418 22 109 22C104.582 22 101 25.5817 101 30C101 34.4183 104.582 38 109 38Z" fill="black"/>
<path fill-rule="evenodd" clip-rule="evenodd" d="M32 0C14.3269 0 0 14.3269 0 32V108C0 125.673 14.3269 140 32 140H108C125.673 140 140 125.673 140 108V32C140 14.3269 125.673 0 108 0H32ZM108 8H32C18.7452 8 8 18.7452 8 32V108C8 121.255 18.7452 132 32 132H108C121.255 132 132 121.255 132 108V32C132 18.7452 121.255 8 108 8Z" fill="black"/>
</svg>
