<?xml version="1.0" encoding="UTF-8"?>
<svg id="Layer_2" data-name="Layer 2" xmlns="http://www.w3.org/2000/svg" viewBox="0 0 228.17 140.49">
  <defs>
    <style>
      .cls-1 {
        fill: #fff;
        stroke-width: 0px;
      }
    </style>
  </defs>
  <g id="Layer_1-2" data-name="Layer 1">
    <g>
      <path class="cls-1" d="M2,5.82c4.33.45,6.91,1.03,9.37,1.87l-.65,3.43,9.31,25.07,9.18-24.62,1.03-5.82c2.2.19,3.49.65,4.72,1.36l-.71,5.62,2,36.38,4.65.32-2,3.36c-5.49-.45-10.79-1.42-13.57-2.26l1.42-2.39,4.46.45-1.42-31.41-8.53,22.75.71,6.98c-1.68-.26-4.01-1.03-5.17-1.81l-.13-5.11-8.34-23.52-2.33,31.92c2.91,1.16,9.63,2.65,13.96,2.91l-2.39,3.49c-3.36-.32-8.59-2.07-11.83-3.36l-.58,5.62-4.14-1.1L5.43,9.63l-5.43-.39,2-3.43Z"/>
      <path class="cls-1" d="M49.24,49.37l3.62.39-1.94,3.23c-3.81-.52-6.98-1.42-9.11-2.46v-.71l2.52-.58v-31.47l-4.2-.45,2-3.23c2.26.26,5.04,1.1,7.11,2.2v33.09ZM48.47,9.56l-3.49-.65-.32-8.92c1.42.19,3.62.97,4.91,1.74l-1.1,7.82Z"/>
      <path class="cls-1" d="M55.06,17.12l8.85-4.01c1.42.52,2.71,1.16,3.81,1.81l.52-5.82,2.84,1.49.06,18.93c-1.81-.45-3.75-1.62-4.46-2.26l.78-9.18c-1.29-.52-3.49-1.23-4.98-1.62l-3.04,1.16,1.16,10.02,10.6,10.66,1.1,11.37-8.21,4.33c-3.1-.78-7.37-2.26-9.24-3.55l.71-13.18c1.29.32,3.49.9,4.33,1.74l-1.1,9.5c1.68.84,4.46,1.74,6.53,2.26l2.39-1.29-.9-8.21-10.53-11.11-1.23-13.05Z"/>
      <path class="cls-1" d="M75.93,17.12l8.85-4.01c1.42.52,2.71,1.16,3.81,1.81l.52-5.82,2.84,1.49.06,18.93c-1.81-.45-3.75-1.62-4.46-2.26l.78-9.18c-1.29-.52-3.49-1.23-4.98-1.62l-3.04,1.16,1.16,10.02,10.6,10.66,1.1,11.37-8.21,4.33c-3.1-.78-7.37-2.26-9.24-3.55l.71-13.18c1.29.32,3.49.9,4.33,1.74l-1.1,9.5c1.68.84,4.46,1.74,6.53,2.26l2.39-1.29-.9-8.21-10.53-11.11-1.23-13.05Z"/>
      <path class="cls-1" d="M107.53,53.96c-3.68-.65-7.43-2.07-9.89-3.62l1.36-17.19-1.55-16.03,9.05-4.07c3.3.84,6.91,2.65,9.24,4.27l-1.36,15.83,1.36,16.54-8.21,4.27ZM103.2,9.05l-3.75-.97-.13-6.53c1.94.19,3.81.78,5.17,1.62l-1.29,5.88ZM109.73,33.15l1.03-14.86c-1.55-.65-4.14-1.55-6.01-1.94l-2.78,1.29,1.62,15.51-1.36,15.83c1.55.58,4.14,1.42,6.14,1.81l2.78-1.29-1.42-16.35ZM112.63,9.11l-3.75-.84-.13-6.59c1.94.19,3.75.9,5.23,1.68l-1.36,5.75Z"/>
      <path class="cls-1" d="M142.17,49.76l-1.94,3.23c-3.81-.52-6.98-1.42-9.11-2.46v-.71l2.52-.58v-31.21c-1.03-.52-2.2-.9-3.23-1.16l-3.88,1.81v30.69l3.62.39-1.94,3.23c-3.81-.52-6.98-1.42-9.11-2.46v-.71l2.52-.58v-31.47l-4.2-.45,2-3.23c2.26.26,4.91,1.1,6.98,2.2l5.17-3.04c2.39.84,4.59,1.94,6.4,3.23l5.62-3.23c2.65.9,5.04,2.2,6.98,3.68v32.44l3.62.39-1.94,3.23c-3.81-.52-6.98-1.42-9.11-2.46v-.71l2.52-.58v-31.21c-1.03-.52-2.2-.9-3.23-1.16l-3.88,1.81v30.69l3.62.39Z"/>
      <path class="cls-1" d="M178.42,49.76l-1.94,3.23c-3.81-.52-6.98-1.42-9.11-2.46v-.71l2.52-.58v-31.21c-1.03-.52-2.2-.9-3.23-1.16l-3.88,1.81v30.69l3.62.39-1.94,3.23c-3.81-.52-6.98-1.42-9.11-2.46v-.71l2.52-.58v-31.47l-4.2-.45,2-3.23c2.26.26,4.91,1.1,6.98,2.2l5.17-3.04c2.39.84,4.59,1.94,6.4,3.23l5.62-3.23c2.65.9,5.04,2.2,6.98,3.68v32.44l3.62.39-1.94,3.23c-3.81-.52-6.98-1.42-9.11-2.46v-.71l2.52-.58v-31.21c-1.03-.52-2.2-.9-3.23-1.16l-3.88,1.81v30.69l3.62.39Z"/>
      <path class="cls-1" d="M193.28,33.8l3.81-1.87-5.11-14.73,9.24-4.14c2.97.9,5.95,2.39,8.34,3.88v32.44l3.62.39-1.94,3.23c-2.39-.39-4.85-1.29-6.59-2.33l-4.59,3.1c-2.65-.65-6.14-2.13-8.14-3.43l1.36-16.54ZM196.64,48.66l4.59,1.62,3.42-1.87v-17.64l-7.04,4.01-.97,13.89ZM196.83,17.64l3.17,12.86,4.65-2.26v-10.08c-1.23-.52-3.42-1.29-4.98-1.68l-2.84,1.16Z"/>
      <path class="cls-1" d="M221.65,18.74v30.5l5.82.52-1.94,3.23c-4.65-.45-9.18-1.55-11.31-2.46v-.71l2.52-.58v-31.47l-4.2-.45,2-3.23c2.2.26,4.91,1.1,6.98,2.13l2.65-3.23c1.42.58,3.23,1.87,4.01,2.78l-1.23,6.79-5.3-3.81Z"/>
      <path class="cls-1" d="M23.3,90.66c2.78.9,6.07,2.78,7.95,4.2l-1.36,15.7,1.36,16.67-8.85,4.2-3.88-2v7.17l6.14.65-2,3.23c-3.55-.32-7.56-1.1-9.63-1.94l.58-2.07v-41.16l-4.2-.45,2-3.23c2.26.26,4.91,1.1,6.98,2.2l4.91-3.17ZM18.51,126.14l4.46,1.75,3.68-.84-1.42-16.41,1.03-14.8c-1.03-.52-2.78-1.16-3.94-1.42l-3.81,1.81v29.92Z"/>
      <path class="cls-1" d="M42.04,96.29v30.5l5.82.52-1.94,3.23c-4.65-.45-9.18-1.55-11.31-2.46v-.71l2.52-.58v-31.47l-4.2-.45,2-3.23c2.2.26,4.91,1.1,6.98,2.13l2.65-3.23c1.42.58,3.23,1.87,4.01,2.78l-1.23,6.79-5.3-3.81Z"/>
      <path class="cls-1" d="M60.52,131.5c-3.68-.65-7.43-2.07-9.89-3.62l1.36-17.19-1.55-16.03,9.05-4.07c3.3.84,6.91,2.65,9.24,4.27l-1.36,15.83,1.36,16.54-8.21,4.26ZM62.71,110.7l1.03-14.86c-1.55-.65-4.14-1.55-6.01-1.94l-2.78,1.29,1.62,15.51-1.36,15.83c1.55.58,4.14,1.42,6.14,1.81l2.78-1.29-1.42-16.35Z"/>
      <path class="cls-1" d="M81.2,131.5c-2.78-.9-6.07-2.78-7.95-4.2l1.42-16.61-1.55-16.03,8.59-4.07c1.55.58,2.97,1.1,4.27,1.68v-9.05l-6.14-.65,2-3.23c3.55.32,6.98,1.1,9.05,1.94v45.56l4.2.45-2,3.23c-2.26-.26-4.91-1.1-6.98-2.2l-4.91,3.17ZM85.98,125.95v-30.57l-5.56-1.49-2.78,1.29,1.62,15.51-1.16,15.64c1.03.52,2.91,1.16,4.07,1.42l3.81-1.81Z"/>
      <path class="cls-1" d="M93.99,94.86l2-3.23c2.84.39,5.62.9,7.11,1.49v33.41c1.03.52,2.2.9,3.23,1.16l3.88-1.81v-30.69l-3.62-.39,1.94-3.23c2.52.32,5.49,1.03,7.37,1.74l-.78,2v31.47l4.2.45-2,3.23c-2.26-.26-4.91-1.1-6.98-2.2l-5.17,3.04c-2.65-.91-5.04-2.2-6.98-3.68v-32.38l-4.2-.39Z"/>
      <path class="cls-1" d="M127.92,107.98l3.68,1.55,2.97-8.98-.13-9.37c1.16.19,4.01,1.29,5.04,2.07l-.65,8.47-4.2,9.11,5.04,15.64,2.97.65-1.94,3.42c-2.2-.45-4.39-1.29-5.69-2l-4.52-16.09-2.58-.78v15.25l3.62.39-1.94,3.23c-3.81-.52-6.98-1.42-9.11-2.46v-.71l2.52-.58v-43.75l-4.2-.45,2-3.23c2.26.26,5.04,1.1,7.11,2.2v26.43Z"/>
      <path class="cls-1" d="M155.83,130.47c-4.46-.39-9.05-1.23-11.11-1.87v-.45l1.62-2.13v-29.14l-4.52-.65,1.29-2.65h3.68l-.65-9.76,5.43-2.58-.65,12.34h7.75l-2.07,4.46-5.36-.84v29.34c1.55.19,4.27.52,6.46.65l-1.87,3.3Z"/>
      <path class="cls-1" d="M166.17,126.92l3.62.39-1.94,3.23c-3.81-.52-6.98-1.42-9.11-2.46v-.71l2.52-.58v-31.47l-4.2-.45,2-3.23c2.26.26,5.04,1.1,7.11,2.2v33.09ZM165.4,87.11l-3.49-.65-.32-8.92c1.42.19,3.62.97,4.91,1.74l-1.1,7.82Z"/>
      <path class="cls-1" d="M182.07,131.5c-3.68-.65-7.43-2.07-9.89-3.62l1.36-17.19-1.55-16.03,9.05-4.07c3.3.84,6.92,2.65,9.24,4.27l-1.36,15.83,1.36,16.54-8.21,4.26ZM184.26,110.7l1.03-14.86c-1.55-.65-4.14-1.55-6.01-1.94l-2.78,1.29,1.62,15.51-1.36,15.83c1.55.58,4.14,1.42,6.14,1.81l2.78-1.29-1.42-16.35Z"/>
      <path class="cls-1" d="M216.7,127.3l-1.94,3.23c-3.81-.52-6.98-1.42-9.11-2.46v-.71l2.52-.58v-31.21c-1.03-.52-2.2-.9-3.23-1.16l-3.88,1.81v30.69l3.62.39-1.94,3.23c-3.81-.52-6.98-1.42-9.11-2.46v-.71l2.52-.58v-31.47l-4.2-.45,2-3.23c2.26.26,4.91,1.1,6.98,2.2l5.17-3.04c2.65.9,5.04,2.2,6.98,3.68v32.44l3.62.39Z"/>
    </g>
  </g>
</svg>